<?xml version="1.0" encoding="utf-8"?>
<!-- Generator: Adobe Illustrator 23.1.1, SVG Export Plug-In . SVG Version: 6.00 Build 0)  -->
<svg version="1.1" id="Layer_1" xmlns="http://www.w3.org/2000/svg" xmlns:xlink="http://www.w3.org/1999/xlink" x="0px" y="0px"
	 viewBox="0 0 187 187" style="enable-background:new 0 0 187 187;" xml:space="preserve">
<path d="M127.7,91.4c-1.7-1.7-3.8-2.9-6.2-3.5c-1.5-0.4-3.1-0.8-4.8-1.2l0.8-0.9c1.4-1.7,2.5-3.6,3.1-5.7c0.6-2.1,0.8-4.3,0.6-6.4
	c-0.2-2.2-0.9-4.2-2-6.1s-2.6-3.5-4.3-4.8c-4.2-2.9-9.1-3.3-13.9-3C96,60,96,60.1,95,55.2l-1.9-9.6c-2.6,0.5-5,1.1-7.4,1.4
	c-1.3,0.2-1.6,0.8-1.3,2c0.6,2.9,1.2,5.7,1.8,8.6c0.9,4.5,1,3.6-2.8,4.4c-3.7,0.8-3.1,1.4-3.9-2.6c-0.7-3.5-1.4-7-2.2-10.7
	c-2.6,0.5-5,1.1-7.3,1.5c-1.3,0.2-1.6,0.8-1.4,2c0.8,3.6,1.3,7.1,2.2,10.6c0.4,1.8-0.1,2.4-1.8,2.7c-4.6,0.8-9.2,1.8-13.7,2.7
	c-0.5,0.1-1.4,0.9-1.4,1.2c0.4,2.8,1,5.6,1.7,8.6c2-0.4,3.9-0.8,5.8-1.2c3.8-0.8,6,0.6,6.7,4.5l7.1,35.5c0.8,4.2,0.1,5.2-4,6.1
	c-1.5,0.3-3.5,0.2-4.2,1.1c-0.7,0.9-0.4,2.9-0.4,4.4c0,2.1,0.2,4.2,0.3,6.5l12.7-2.5c5-1,5-1,6,4c0.6,3.1,1.3,6.3,1.9,9.5l9-1.8
	c-0.7-3.4-1.3-6.5-1.9-9.7c-1-4.8-1-4.8,4-5.6c1.6-0.3,2.1,0.3,2.4,1.7c0.4,2.5,1,4.9,1.4,7.3c0.3,1.6,0.7,3.3,1,5
	c2.6-0.5,5-1.1,7.4-1.4c1.3-0.2,1.6-0.7,1.3-2c-0.8-3.8-1.5-7.6-2.4-11.3c-0.2-1.2,0-1.6,1.2-2c3.1-0.9,6.1-2,9.1-3.2
	c6-2.6,10.6-6.5,11.9-13.3c0.7-4,0.4-8.1-0.8-12C130.5,95.3,129.4,93.2,127.7,91.4z M87.1,90.5c-0.4,0.1-1.4-0.8-1.5-1.3
	c-0.6-2.4-1-4.8-1.5-7.1c-0.5-2.4-1-4.8-1.4-7.1c0-0.3,0.1-0.7,0.3-1c0.2-0.3,0.4-0.6,0.7-0.7c4.5-1.4,9.2-1.8,13.8-1.3
	c5.3,0.8,8.5,5.5,6.7,10.1c-0.7,1.6-1.9,3-3.4,4C96.7,88.8,91.9,89.7,87.1,90.5z M110.2,112.9c-4.1,2.9-8.8,4.2-13.7,5.2
	c-5,1-5,1-6-4c-0.8-4.1-1.6-8.3-2.5-12.4c-0.3-1.3,0-1.8,1.3-2c1.7-0.3,3.3-0.6,4.9-1c4.1-1.1,8.4-1.3,12.5-0.6
	c3.6,0.7,6.1,2.5,7.1,6C114.9,107.6,113.5,110.5,110.2,112.9z M159.6,27.4C142.1,9.9,118.3,0,93.5,0C75,0,56.9,5.5,41.6,15.8
	C26.2,26,14.2,40.6,7.1,57.7s-8.9,35.9-5.3,54c3.6,18.1,12.5,34.8,25.6,47.9c13.1,13.1,29.7,22,47.9,25.6c18.1,3.6,36.9,1.8,54-5.3
	c17.1-7.1,31.7-19.1,42-34.4C181.5,130.1,187,112,187,93.5C187,68.7,177.1,44.9,159.6,27.4z M149.5,149.5
	c-14.8,14.9-35,23.2-56,23.2c-15.7,0-31-4.6-44-13.3c-13-8.7-23.2-21.1-29.2-35.5c-6-14.5-7.6-30.4-4.5-45.8
	c3.1-15.4,10.6-29.5,21.7-40.6C48.6,26.4,62.7,18.9,78,15.8c15.4-3.1,31.3-1.5,45.8,4.5c14.5,6,26.8,16.1,35.5,29.2
	c8.7,13,13.3,28.3,13.3,44C172.7,114.5,164.3,134.6,149.5,149.5z"/>
</svg>
