<svg xmlns="http://www.w3.org/2000/svg" viewBox="0 0 70.59 97.63"><title>Bitcoin</title><g id="Layer_2" data-name="Layer 2"><g id="Lag_1" data-name="Lag 1"><path d="M27.29,97.52H18.08V87.77c0-5.08,0-5.08-5.09-5.09H0c.36-2.31.62-4.38,1-6.42.28-1.48.29-3.47,1.24-4.25s2.85-.25,4.34-.26c4.22,0,5.12-.9,5.12-5.16V30.32c0-3.9-1.8-5.68-5.72-5.7-1.91,0-3.83,0-5.91,0,0-3.11,0-6,.08-8.81,0-.34,1-.9,1.58-.91,4.67-.07,9.35-.09,14,0,1.77,0,2.41-.48,2.35-2.31C18,9,18.12,5.36,18.06,1.74,18,.45,18.48,0,19.79,0c2.41.07,4.83,0,7.5,0,0,3.79,0,7.39,0,11,0,4-.33,3.41,3.36,3.31,3.84-.1,3.59.84,3.6-3.78,0-2.93,0-5.86,0-8.79,0-1.23.32-1.8,1.68-1.75,2.42.1,4.84,0,7.52,0V9.86c0,5,0,4.85,4.89,5.6s9.55,2,13.08,5.74a15.84,15.84,0,0,1-2,23.13L58.5,45c1.65.77,3.11,1.38,4.52,2.1,4.67,2.39,7,6.3,7.46,11.48a25.6,25.6,0,0,1-1.62,11.91c-2.61,6.42-8,9.34-14.28,10.75A81.1,81.1,0,0,1,45,82.63c-1.22.13-1.59.53-1.58,1.7.05,3.87,0,7.73.05,11.6,0,1.29-.37,1.75-1.7,1.7-2.41-.1-4.84,0-7.51,0V92.49c0-2.5-.06-5,0-7.48,0-1.47-.36-2.11-2-2.15-5-.14-5-.2-5,4.75Zm6.85-45.21c-1.68,0-3.37.06-5.05,0-1.3-.06-1.72.46-1.71,1.74.06,4.23,0,8.47,0,12.7,0,5.1,0,5.11,5.13,5.07,4.93,0,9.83-.35,14.43-2.38,3.73-1.64,5.63-4.33,5.37-7.9s-2.43-6-5.76-7.32A30.14,30.14,0,0,0,34.14,52.31ZM27.4,34.08c0,2.43-.08,4.86.06,7.28,0,.57.79,1.58,1.23,1.59,4.85.09,9.75.19,14.3-1.75a9.82,9.82,0,0,0,4.12-3.3c2.74-4.1.54-9.36-4.56-11.19-4.46-1.61-9.13-1.74-13.8-1.43a2.1,2.1,0,0,0-1.28,1.53C27.32,29.23,27.4,31.66,27.4,34.08Z"/></g></g></svg>