<svg xmlns="http://www.w3.org/2000/svg" viewBox="0 0 163.66 172.02"><title>tron</title><g id="Layer_2" data-name="Layer 2"><g id="Lag_1" data-name="Lag 1"><path d="M0,0C1.11.2,2.12.37,3.12.56L20.38,3.74,37.72,6.93l17.1,3.15,17.34,3.19,16.3,3,17.18,3.15,16.46,3c2.43.45,4.85.88,7.27,1.35a2.14,2.14,0,0,1,1,.52L150.21,43.2l12.62,12c.25.24.53.45.83.71L68.36,172Q34.16,85.93,0,0ZM17.94,20.27a1.65,1.65,0,0,0,0,.38Q43,83.5,68,146.36a.15.15,0,0,0,.06,0h.13c.12-.95.25-1.91.37-2.87q.77-6.37,1.52-12.75.7-5.73,1.4-11.45t1.37-11.46c.52-4.25,1-8.5,1.56-12.75q.69-5.73,1.37-11.46c.53-4.41,1-8.82,1.62-13.23A1.37,1.37,0,0,0,76.77,69Q47.72,44.95,18.68,20.85ZM146.11,63l-.09-.14L86.09,73.69l-8.77,72.47c0,.1,0,.21,0,.32a.08.08,0,0,0,0,.07s0,0,.14,0ZM81.53,61.19,117.87,30.9,24.68,13.75l-.1.21Zm46.28-26.76L93.47,63.05c1.25-.13,53.53-9.5,54.07-9.87Z"/></g></g></svg>